<svg xmlns="http://www.w3.org/2000/svg" width="1333" height="1223" viewBox="0 0 1333 1223" fill="none"><metadata><rdf:RDF xmlns:rdf="http://www.w3.org/1999/02/22-rdf-syntax-ns#" xmlns:dc="http://purl.org/dc/elements/1.1/"><rdf:Description><dc:creator>RealFaviconGenerator</dc:creator><dc:source>https://realfavicongenerator.net</dc:source></rdf:Description></rdf:RDF></metadata><path d="M543.333 2.36465C530.533 6.49799 515.867 17.698 509.733 28.2313C508 31.298 500 49.0313 492 67.698C484 86.3647 469.067 121.165 458.8 145.031C448.533 168.898 436.533 197.031 432 207.698C427.6 218.365 404.267 272.898 380.4 329.031C356.4 385.165 331.067 444.498 324.133 461.031C300.8 515.965 284.8 553.565 279.067 567.031C275.867 574.365 268.133 592.898 261.733 608.365C255.333 623.698 239.867 660.365 227.467 689.698C214.933 719.031 200.8 752.365 196 763.698C184.133 791.698 96.2667 997.031 93.7333 1002.63C92.6667 1005.03 80.1333 1034.36 65.8667 1067.7C51.6 1101.03 32.9333 1144.5 24.4 1164.36C15.7333 1184.1 6.8 1205.03 4.4 1210.63L0 1220.9L9.6 1221.7C14.8 1222.23 59.2 1222.36 108.4 1222.1C196.267 1221.56 197.867 1221.56 207.467 1218.63C226 1213.03 239.867 1203.7 250.933 1189.3C260.4 1177.03 264 1169.16 293.867 1097.03C313.733 1049.03 328.533 1023.7 343.333 1011.96C352 1005.16 367.6 997.431 379.733 993.965C394.533 989.698 407.867 987.965 441.067 986.365C482.667 984.231 514.133 979.698 545.067 971.165C621.733 950.098 694.8 907.431 775.733 836.498C831.2 787.698 955.067 660.098 1009.73 595.165C1017.07 586.498 1028.8 572.631 1035.73 564.365C1042.67 556.098 1053.87 542.898 1060.4 534.898C1073.87 518.631 1079.2 512.365 1110.4 475.565C1122.4 461.298 1135.2 446.498 1138.8 442.765L1145.47 435.698L1151.6 440.898C1154.93 443.698 1167.6 455.298 1179.73 466.498C1192 477.831 1208.4 493.031 1216.4 500.365C1224.53 507.698 1236.27 518.631 1242.67 524.631C1249.07 530.765 1254.8 535.698 1255.47 535.698C1256.13 535.698 1258.27 524.498 1260.27 510.631C1262.27 496.898 1265.73 474.631 1267.87 461.031C1270 447.431 1274.67 416.231 1278.4 391.698C1282 367.165 1287.2 333.831 1289.6 317.698C1292.13 301.565 1295.2 282.098 1296.27 274.365C1298.8 257.698 1322.13 103.831 1329.73 53.8313C1331.6 41.5647 1332.93 31.1647 1332.8 30.898C1332.53 30.6313 1329.6 31.4313 1326.4 32.6313C1318.27 35.4313 1249.33 59.0313 1215.73 70.6313C1165.47 87.8313 1147.33 93.9647 1109.73 107.031C1089.2 114.098 1060.4 124.098 1045.73 129.031C1031.07 133.965 1001.33 144.231 979.733 151.698C937.467 166.231 883.2 184.765 879.467 185.965C878.133 186.365 877.067 187.165 877.067 187.698C877.067 188.631 938.667 246.098 970.933 275.431C976.933 280.765 981.733 285.831 981.733 286.498C981.733 288.098 964.133 308.898 928.933 349.031C924.8 353.831 911.333 369.431 898.933 383.698C871.067 415.965 861.067 427.431 810.4 485.031C629.2 690.765 554.933 747.965 457.067 756.898C448.667 757.698 439.733 758.365 437.2 758.365C431.733 758.365 431.867 757.965 439.467 739.698C442.267 732.765 452.267 708.365 461.467 685.698C486 625.298 497.867 596.231 512.4 561.031C519.6 543.831 528 523.431 531.067 515.698C534.267 507.965 543.867 484.631 552.4 463.698C584.667 385.298 591.067 369.831 609.333 325.031C619.6 299.698 630.133 273.565 632.667 267.031C635.2 260.365 637.733 254.498 638.267 253.965C639.6 252.631 641.467 257.031 682.4 359.031C732.267 483.298 735.333 491.031 736.667 491.031C738 491.031 762.933 463.431 812.4 407.165C873.067 337.965 893.067 314.498 893.067 312.231C893.067 311.431 889.733 303.031 885.6 293.565C881.467 284.098 870.4 258.098 860.8 235.831C851.333 213.565 839.2 185.298 833.867 173.165C819.733 141.031 813.6 126.765 792.8 77.698C782.667 53.5647 772.8 31.298 771.067 28.2313C765.867 19.4313 753.2 8.63132 742.933 4.23132L733.733 0.364654L642.4 0.0979872C556.267 -0.168679 550.667 -0.0353461 543.333 2.36465Z" fill="#344454"></path><path d="M1026.4 651.965C998.4 683.965 933.067 753.031 888.133 798.231C875.467 810.898 865.067 821.831 865.067 822.631C865.067 824.765 914.8 941.298 951.733 1025.7C963.333 1052.1 978.533 1087.43 985.733 1104.36C1016.27 1176.76 1022.27 1188.1 1036.8 1201.03C1045.2 1208.5 1058.8 1215.83 1071.07 1219.3C1078.27 1221.3 1090.13 1221.56 1182.53 1222.1L1286.13 1222.5L1271.73 1190.1C1263.87 1172.23 1254.4 1150.5 1250.67 1141.7C1241.2 1118.76 1226.8 1085.16 1215.73 1059.7C1206.67 1038.76 1123.2 844.631 1105.73 803.698C1101.2 793.031 1093.87 775.965 1089.47 765.698C1084.93 755.431 1076.4 735.298 1070.4 721.031C1064.27 706.765 1054.13 682.898 1047.73 667.965L1036.13 640.898L1026.4 651.965Z" fill="#344454"></path><style>@media (prefers-color-scheme: light) { :root { filter: none; } }
@media (prefers-color-scheme: dark) { :root { filter: contrast(0.3846153846153846) brightness(4.5); } }
</style></svg>