<svg xmlns="http://www.w3.org/2000/svg" version="1.1" xmlns:xlink="http://www.w3.org/1999/xlink" width="1000" height="1000"><metadata><rdf:RDF xmlns:rdf="http://www.w3.org/1999/02/22-rdf-syntax-ns#" xmlns:dc="http://purl.org/dc/elements/1.1/"><rdf:Description><dc:creator>RealFaviconGenerator</dc:creator><dc:source>https://realfavicongenerator.net</dc:source></rdf:Description></rdf:RDF></metadata><g clip-path="url(#SvgjsClipPath1072)"><rect width="1000" height="1000" fill="#ffffff"></rect><g transform="matrix(1.4992503748125936,0,0,1.4992503748125936,5.684341886080802e-14,45.72713643178412)"><svg xmlns="http://www.w3.org/2000/svg" width="667" height="606" viewBox="0 0 667 606" fill="none"><path d="M267.867 6.26666C266.267 9.86666 257.067 31.6 247.333 54.6667C237.6 77.7333 225.067 107.2 219.6 120C214.133 132.8 204.8 154.667 198.933 168.667C193.067 182.533 180.4 212.533 170.8 235.2C161.2 257.867 153.467 276.533 153.6 276.667C153.867 276.8 159.067 279.6 165.2 282.667C177.467 289.067 193.733 299.733 213.333 314.267C228.933 325.733 240.667 333.333 242.933 333.333C243.867 333.333 248 325.067 252.267 314.267C256.4 303.867 267.067 277.6 275.733 256C289.733 221.6 323.333 137.2 325.867 130.133C327.067 126.8 328.267 128.4 331.333 136.667C340.667 162.4 385.333 274.667 386.267 274.667C386.533 274.667 391.067 272 396.133 268.667C420.133 253.067 446.4 243.333 476.4 238.533C484.933 237.2 486.8 236.533 486.267 234.8C485.733 233.067 414.8 66.8 391.733 12.9333L386.133 -7.21216e-06H328.267H270.533L267.867 6.26666Z" fill="#324353"></path><path d="M518.133 211.6C519.867 226.133 521.467 240.267 521.733 242.933L522.4 248H514.533C493.733 248 460.267 254 440.133 261.333C415.6 270.267 399.2 280.667 364 309.333C335.733 332.4 327.467 338.267 315.2 344.4C301.6 351.2 290.933 353.733 275.333 353.733C251.6 353.867 237.6 348 204 323.733C167.867 297.867 157.467 291.867 135.467 284.667C116.8 278.667 102.667 276.8 81.2 277.733C55.3333 278.8 33.7333 285.2 10.2667 298.667L0 304.533V347.067V389.6L3.06667 387.067C4.8 385.733 10.9333 380.933 16.5333 376.4C54.2667 345.733 92.8 339.467 129.333 358C134.133 360.4 150 370.8 164.667 381.2C179.333 391.467 196.533 402.667 202.933 406C241.2 426.133 283.467 429.733 324.667 416.4C347.867 408.933 364.133 398.8 401.867 368.4C416.4 356.667 432.933 344.267 438.533 340.8C459.867 327.867 487.067 320 509.867 320H521.333V324.933C521.2 327.733 520.133 341.333 518.8 355.333C517.333 369.2 516.4 380.8 516.667 381.067C516.8 381.333 526 375.6 536.8 368.267C547.733 361.067 565.733 349.2 576.667 342C587.733 334.933 607.467 321.867 620.667 313.2C633.867 304.533 649.6 294.267 655.733 290.267L666.8 283.067L650.4 272.4C630.667 259.467 580.267 226.8 567.333 218.4C562.267 215.067 549.067 206.533 538 199.333C527.067 192.267 517.467 186.133 516.667 185.733C515.6 185.467 516.133 194 518.133 211.6Z" fill="#324353"></path><path d="M495.333 334.267C485.467 335.6 469.2 340.133 460.8 343.867C452.533 347.733 434.533 358.8 426.8 365.067L423.6 367.6L428.533 378.8C431.2 385.067 433.333 390.533 433.333 391.067C433.333 391.6 424.533 392 413.867 392H394.267L385.467 398.533C348.4 425.867 315.2 437.733 276 437.733C235.867 437.867 205.867 426.533 160 394C147.2 384.933 131.867 374.667 126 371.333L115.333 365.333L111.733 372.933C109.867 377.2 87.0666 430.133 61.3333 490.667C35.4666 551.2 13.8667 601.733 13.0667 603.067C12 605.2 14.9333 605.333 72.1333 605.067L132.4 604.667L148.267 567.333C156.933 546.8 168.133 520.4 173.2 508.667L182.267 487.333L327.467 487.067L472.667 486.667L477.733 499.067C480.533 505.733 491.867 532.533 503.067 558.267L523.333 605.333H584.4C617.867 605.333 645.333 604.8 645.333 604.267C645.333 603.733 638.133 586.533 629.2 566C590.933 477.333 563.2 412.8 556.4 396.667C552.4 387.067 548.667 378.933 548.133 378.267C547.6 377.733 536.667 384.133 524 392.533C511.2 401.067 500.667 407.733 500.533 407.6C500.4 407.467 501.6 392.667 503.467 374.667C505.2 356.667 506.667 340 506.667 337.6C506.667 333.067 506 332.8 495.333 334.267Z" fill="#324353"></path></svg></g></g><defs><clipPath id="SvgjsClipPath1072"><rect width="1000" height="1000" x="0" y="0" rx="150" ry="150"></rect></clipPath></defs></svg>